<svg id="Issac_variation_7" data-name="Issac variation 7" xmlns="http://www.w3.org/2000/svg" viewBox="0 0 467.73 132.84"><defs><style>.cls-1{fill:none;stroke:#bbbcbc;stroke-linecap:round;stroke-linejoin:round;}.cls-2{fill:#fff;}</style></defs><title>ISA_Logo_tagline_polygon_left_RGB</title><path class="cls-1" d="M66.69,0.5L44.53,4.64,3.67,48,0.5,70.5l28.24,52.13,20.51,9.7L108,121.47,123.68,105,131,46.28,119.87,25.63Zm41.32,121,8.57-67.55M131,46.28L69.66,16.77,26.53,62.31m23.18,42.87L19.91,50.06,66.69,0.5M28.74,122.63l67.1-12.46L104,47.92m12.55,6L60,27m37.71,69.3L35.89,107.74,3.66,47.92"/><polygon class="cls-2" points="44.3 88.54 51.96 88.54 55.31 88.54 55.31 67.56 55.31 66.53 55.31 46.72 55.31 44.24 44.3 44.24 44.3 88.54"/><path class="cls-2" d="M49.9,24.15a6.37,6.37,0,0,0-6.6,6.42,6.27,6.27,0,0,0,6.6,6.24,6.25,6.25,0,0,0,6.51-6.24A6.34,6.34,0,0,0,49.9,24.15Z"/><path class="cls-2" d="M96.14,66.31c-2.56-2.2-6.55-3.72-12.3-5.19-6.6-1.74-8.25-3-8.25-5.41s2-4,6.14-4a30.27,30.27,0,0,1,14,4L97,48l0.23-1.46-0.49-.21a37.67,37.67,0,0,0-15-2.91c-6.89,0-11.88,2.44-14.41,6.35a12.07,12.07,0,0,0-1.91,6.67,12,12,0,0,0,1.91,7.11c2.24,3.2,6.52,5.09,13.31,6.83,7.06,1.74,9,3,9,6.15,0,2.84-2.57,4.59-7.34,4.59a30.14,30.14,0,0,1-15-4.51c-0.4-.24-0.8-0.47-1.18-0.72l-1.47,9.17c0.79,0.43,1.7.85,2.64,1.25a38.89,38.89,0,0,0,14.6,3.06c5.93,0,10.45-1.34,13.47-3.8a12.35,12.35,0,0,0,4.41-10.05C99.79,71.35,98.67,68.49,96.14,66.31Z"/><path class="cls-2" d="M126.57,43.32a45.53,45.53,0,0,0-17.23,3.43L109,46.9,109.14,48l1.2,7.69a36.42,36.42,0,0,1,14.77-3.58c4.86,0,7.61,1.83,7.61,6.6V60c-10.58,1-18,3.1-22.24,6.83A12.9,12.9,0,0,0,106,77.16a12.08,12.08,0,0,0,3.52,9.08,12.86,12.86,0,0,0,9,3.21c6.6,0,11.19-2.93,14.77-6.7l0.92,5.78h9.45V58.18C143.72,47.54,138,43.32,126.57,43.32Zm6.15,33c-3,3-6.6,4.77-10.36,4.77-3.39,0-5.41-1.93-5.41-5.14,0-4.22,3-8,15.77-9.54v9.91Z"/><path class="cls-2" d="M172.71,43.32c-1.47,0-2.86.08-4.2,0.21L167,43.7a49.11,49.11,0,0,0-11.88,3.2l1.38,8.8A37.7,37.7,0,0,1,170,52.17c0.42,0,.84,0,1.26,0h0.32c4.66,0.08,7.29,1.93,7.29,6.6V60c-1.51.15-2.93,0.32-4.31,0.51l-1.51.22c-8.19,1.28-13.94,3.44-17.3,6.93a13,13,0,0,0-3.56,9.49,12.06,12.06,0,0,0,3.56,9.12,12.88,12.88,0,0,0,9,3.17c6.6,0,11.19-2.93,14.77-6.7l0.92,5.78h9.45V58.18a20.17,20.17,0,0,0-.83-6.07C187.07,45.91,181.66,43.32,172.71,43.32Zm6.15,33-0.22.2a14.64,14.64,0,0,1-10.14,4.57c-3.39,0-5.41-1.93-5.41-5.14,0-3.79,2.44-7.2,12.16-9l1.5-.25c0.67-.1,1.38-0.2,2.11-0.29v9.91Z"/><path class="cls-2" d="M232.69,75.7a18.94,18.94,0,0,1-7.58,3.8c-0.5.11-1,.2-1.5,0.26a18.83,18.83,0,0,1-2.38.16c-6.7,0-11.65-4.4-11.65-13.57,0-5.77,2-9.75,5.11-11.82a9.47,9.47,0,0,1,1.33-.74,10.83,10.83,0,0,1,4.47-.92A18.3,18.3,0,0,1,232.14,57l1.56-9.9a25.06,25.06,0,0,0-13.85-3.76,23.45,23.45,0,0,0-7.13,1.09c-0.48.15-1,.31-1.42,0.49a19.12,19.12,0,0,0-9.75,8.64,26.39,26.39,0,0,0-3,12.47c0,0.2,0,.4,0,0.6a32.08,32.08,0,0,0,.36,4.85,23.41,23.41,0,0,0,3,8.66L202,80.31a18.7,18.7,0,0,0,2.84,3.52c3.68,3.6,8.76,5.53,14.67,5.53a28.4,28.4,0,0,0,7.22-.86c0.49-.13,1-0.27,1.44-0.43a23.33,23.33,0,0,0,6-3Z"/><path class="cls-2" d="M282.06,47.17l-4.94,13.34h2.48l1-2.88h5.62l1,2.88h2.46l-4.94-13.34h-2.69Zm-0.84,8.61,2.15-6.21h0l2.15,6.21h-4.34Z"/><path class="cls-2" d="M303.16,47.17h-5.43V60.51H300V55.44h3.14c3.58,0,4.88-2.15,4.88-4.15S306.76,47.17,303.16,47.17Zm0,6.4H300v-4.5h3.14c1.83,0,2.59,1,2.59,2.23S305,53.58,303.14,53.58Z"/><path class="cls-2" d="M322,47.17h-5.43V60.51h2.29V55.44H322c3.58,0,4.88-2.15,4.88-4.15S325.59,47.17,322,47.17Zm0,6.4h-3.13v-4.5H322c1.83,0,2.59,1,2.59,2.23S323.82,53.58,322,53.58Z"/><polygon class="cls-2" points="337.67 47.17 335.39 47.17 335.39 60.51 344.74 60.51 344.74 58.49 337.67 58.49 337.67 47.17"/><rect class="cls-2" x="353.06" y="47.17" width="2.29" height="13.34"/><polygon class="cls-2" points="373.9 58.49 366.63 58.49 366.63 54.66 373.07 54.66 373.07 52.8 366.63 52.8 366.63 49.19 373.81 49.19 373.81 47.17 364.36 47.17 364.36 60.51 373.9 60.51 373.9 58.49"/><path class="cls-2" d="M394,53.82c0-4.15-2.57-6.65-7.26-6.65h-4.12V60.51h4.12C391.55,60.51,394,58,394,53.82Zm-7.13,4.76h-2V49.1h2c3.09,0,4.8,1.83,4.8,4.73S390,58.59,386.83,58.59Z"/><path class="cls-2" d="M283.56,72h-5.43V85.37h2.29V80.3h3.14c3.58,0,4.88-2.15,4.88-4.15S287.17,72,283.56,72Zm0,6.4h-3.13v-4.5h3.14c1.83,0,2.59,1,2.59,2.23S285.39,78.44,283.55,78.44Z"/><polygon class="cls-2" points="299.23 79.52 305.67 79.52 305.67 77.66 299.23 77.66 299.23 74.05 306.42 74.05 306.42 72.03 296.96 72.03 296.96 85.37 306.51 85.37 306.51 83.35 299.23 83.35 299.23 79.52"/><path class="cls-2" d="M325.82,76.15c0-2.06-1.28-4.12-4.86-4.12h-5.77V85.37h2.29V80.23h3.66l2.29,5.15h2.5l-2.67-5.51A3.87,3.87,0,0,0,325.82,76.15Zm-4.9,2.29h-3.45v-4.5h3.47c1.79,0,2.57,1,2.57,2.23S322.73,78.44,320.92,78.44Z"/><path class="cls-2" d="M336.49,75.6c0-1,.91-1.77,2.46-1.77a8.4,8.4,0,0,1,3.7.9l0.86-1.83a10.49,10.49,0,0,0-4.63-1.09c-3,0-4.76,1.7-4.76,3.83,0,5.09,7.51,3.11,7.51,6.12,0,1.07-.88,1.83-2.63,1.83a7.73,7.73,0,0,1-4-1.22l-1.11,1.81A10,10,0,0,0,339,85.6c3.35,0,5-1.68,5-3.87C344,76.55,336.49,78.59,336.49,75.6Z"/><path class="cls-2" d="M357.93,72H352.5V85.37h2.29V80.3h3.14c3.58,0,4.88-2.15,4.88-4.15S361.54,72,357.93,72Zm0,6.4h-3.13v-4.5h3.14c1.83,0,2.59,1,2.59,2.23S359.76,78.44,357.91,78.44Z"/><polygon class="cls-2" points="373.6 79.52 380.04 79.52 380.04 77.66 373.6 77.66 373.6 74.05 380.79 74.05 380.79 72.03 371.33 72.03 371.33 85.37 380.88 85.37 380.88 83.35 373.6 83.35 373.6 79.52"/><path class="cls-2" d="M395.59,83.62c-2.78,0-4.55-2-4.55-5s1.83-4.8,4.55-4.8A5.3,5.3,0,0,1,399,75l1.24-1.64a7.42,7.42,0,0,0-4.65-1.58,6.53,6.53,0,0,0-6.84,6.78c0,4.14,2.74,7,6.78,7a6.93,6.93,0,0,0,5-1.94l-1.41-1.49A4.84,4.84,0,0,1,395.59,83.62Z"/><polygon class="cls-2" points="407.77 74.07 412.39 74.07 412.39 85.37 414.67 85.37 414.67 74.07 419.28 74.07 419.28 72.03 407.77 72.03 407.77 74.07"/><rect class="cls-2" x="427.39" y="72.03" width="2.29" height="13.34"/><polygon class="cls-2" points="443.93 82.76 443.89 82.76 440.19 72.03 437.68 72.03 442.57 85.37 445.22 85.37 450.18 72.03 447.68 72.03 443.93 82.76"/><polygon class="cls-2" points="460.45 79.52 466.89 79.52 466.89 77.66 460.45 77.66 460.45 74.05 467.64 74.05 467.64 72.03 458.19 72.03 458.19 85.37 467.73 85.37 467.73 83.35 460.45 83.35 460.45 79.52"/></svg>